# xmcd
#
# Track frame offsets: 
#        150
#        18589
#        33454
#        49665
#        70436
#        90733
#        102060
#        120062
#        146994
#        162312
#        180538
#        197361
#        215783
#        229535
#        249007
#        270581
#        282813
#        299142
#        316877
#        336359
#
# Disc length: 4722 seconds
#
# Revision: 0
# Processed by: cddbd v1.5.2PL0 Copyright (c) Steve Scherf et al.
# Submitted via: ExactAudioCopy v1.1
#
DISCID=23127014
DTITLE=Various Artist - De Ultimate Top 40 Collection - Last Farewell - CD 2
DYEAR=2019
DGENRE=Chanson
TTITLE0=Sarah Brightman - Time To Say Goodbye
TTITLE1=Il Divo - Mama
TTITLE2=Shirley Bassey - My Way
TTITLE3=Leonard Cohen - Hallelujah
TTITLE4=Sarah McLachlan - Angel
TTITLE5=Bob Dylan - Knockin' On Heaven's Door
TTITLE6=Cyndi Lauper - Time After Time
TTITLE7=Jeff Buckley - Satisfied Mind (Live At WFMU)
TTITLE8=Tuck and Patti - Tears In Heaven
TTITLE9=Barry Manilow - Have I Told You Lately
TTITLE10=Susan Boyle - Send In The Clowns
TTITLE11=John Mayer - Dreaming With A Broken Heart
TTITLE12=Lucie Silvas - Nothing Else Matters (Edit)
TTITLE13=Johnny Mathis - When You Wish Upon A Star
TTITLE14=Céline Dion - The Power Of Love
TTITLE15=Elvis Presley - Love Me Tender
TTITLE16=Harry Belafonte - The First Time Ever I Saw Your Face
TTITLE17=Bangles - Eternal Flame
TTITLE18=Julio Iglesias - When I Need You
TTITLE19=Roger Whittaker - The Last Farewell
EXTD=
EXTT0=
EXTT1=
EXTT2=
EXTT3=
EXTT4=
EXTT5=
EXTT6=
EXTT7=
EXTT8=
EXTT9=
EXTT10=
EXTT11=
EXTT12=
EXTT13=
EXTT14=
EXTT15=
EXTT16=
EXTT17=
EXTT18=
EXTT19=
PLAYORDER=
